<svg width="1200" height="630" viewBox="0 0 1200 630" fill="none" xmlns="http://www.w3.org/2000/svg" role="img" aria-labelledby="title desc">
  <title id="title">Strategy Consulting Visualization Skill overview</title>
  <desc id="desc">A visual explanation of the skill: messy business notes become strategic questions, insight headlines, visualization patterns, slide specs, and quality checks.</desc>
  <rect width="1200" height="630" fill="#FFFFFF"/>
  <rect x="48" y="42" width="1104" height="546" rx="18" fill="#F8FAFC" stroke="#D1D5DB"/>

  <text x="84" y="102" fill="#000000" font-family="Georgia, 'Times New Roman', serif" font-size="36" font-weight="700">Strategy Consulting Visualization Skill</text>
  <text x="84" y="138" fill="#374151" font-family="Arial, Helvetica, sans-serif" font-size="20">Turns messy business input into board-ready visualization specs.</text>

  <g transform="translate(84 196)">
    <rect width="194" height="188" rx="10" fill="#FFFFFF" stroke="#D1D5DB"/>
    <text x="20" y="36" fill="#1E3A8A" font-family="Arial, Helvetica, sans-serif" font-size="15" font-weight="700">INPUT</text>
    <text x="20" y="68" fill="#000000" font-family="Arial, Helvetica, sans-serif" font-size="21" font-weight="700">Raw notes</text>
    <text x="20" y="103" fill="#374151" font-family="Arial, Helvetica, sans-serif" font-size="15">ARR grew to $15M</text>
    <text x="20" y="128" fill="#374151" font-family="Arial, Helvetica, sans-serif" font-size="15">Churn reduced ARR</text>
    <text x="20" y="153" fill="#374151" font-family="Arial, Helvetica, sans-serif" font-size="15">Capacity is tight</text>
  </g>

  <path d="M300 290H350" stroke="#1E3A8A" stroke-width="4" stroke-linecap="round"/>
  <path d="M350 290L338 278M350 290L338 302" stroke="#1E3A8A" stroke-width="4" stroke-linecap="round"/>

  <g transform="translate(374 196)">
    <rect width="194" height="188" rx="10" fill="#FFFFFF" stroke="#D1D5DB"/>
    <text x="20" y="36" fill="#1E3A8A" font-family="Arial, Helvetica, sans-serif" font-size="15" font-weight="700">FRAMING</text>
    <text x="20" y="68" fill="#000000" font-family="Arial, Helvetica, sans-serif" font-size="21" font-weight="700">Decision logic</text>
    <rect x="20" y="92" width="154" height="10" rx="5" fill="#1E3A8A"/>
    <rect x="20" y="118" width="116" height="10" rx="5" fill="#6B7280"/>
    <rect x="20" y="144" width="138" height="10" rx="5" fill="#D1D5DB"/>
  </g>

  <path d="M590 290H640" stroke="#1E3A8A" stroke-width="4" stroke-linecap="round"/>
  <path d="M640 290L628 278M640 290L628 302" stroke="#1E3A8A" stroke-width="4" stroke-linecap="round"/>

  <g transform="translate(664 196)">
    <rect width="194" height="188" rx="10" fill="#FFFFFF" stroke="#D1D5DB"/>
    <text x="20" y="36" fill="#1E3A8A" font-family="Arial, Helvetica, sans-serif" font-size="15" font-weight="700">PATTERN</text>
    <text x="20" y="68" fill="#000000" font-family="Arial, Helvetica, sans-serif" font-size="21" font-weight="700">Visual choice</text>
    <rect x="23" y="120" width="34" height="42" fill="#1E3A8A"/>
    <rect x="67" y="92" width="34" height="70" fill="#2563EB"/>
    <rect x="111" y="135" width="34" height="27" fill="#B91C1C"/>
    <line x1="20" y1="162" x2="164" y2="162" stroke="#374151"/>
  </g>

  <path d="M880 290H930" stroke="#1E3A8A" stroke-width="4" stroke-linecap="round"/>
  <path d="M930 290L918 278M930 290L918 302" stroke="#1E3A8A" stroke-width="4" stroke-linecap="round"/>

  <g transform="translate(954 196)">
    <rect width="162" height="188" rx="10" fill="#1E3A5F"/>
    <text x="20" y="36" fill="#E5E7EB" font-family="Arial, Helvetica, sans-serif" font-size="15" font-weight="700">OUTPUT</text>
    <text x="20" y="68" fill="#FFFFFF" font-family="Georgia, 'Times New Roman', serif" font-size="22" font-weight="700">Slide spec</text>
    <text x="20" y="101" fill="#E5E7EB" font-family="Arial, Helvetica, sans-serif" font-size="14">Headline</text>
    <text x="20" y="126" fill="#E5E7EB" font-family="Arial, Helvetica, sans-serif" font-size="14">Chart layout</text>
    <text x="20" y="151" fill="#E5E7EB" font-family="Arial, Helvetica, sans-serif" font-size="14">Assumptions</text>
  </g>

  <g transform="translate(84 438)">
    <rect width="1032" height="78" rx="12" fill="#FFFFFF" stroke="#D1D5DB"/>
    <text x="24" y="33" fill="#000000" font-family="Arial, Helvetica, sans-serif" font-size="18" font-weight="700">Creates reproducible visual plans, not just pretty prompts.</text>
    <text x="24" y="56" fill="#374151" font-family="Arial, Helvetica, sans-serif" font-size="14">Board update specs · Waterfall charts · Benchmark tables · 2x2 maps · Timelines · Executive summary strips · Quality checks</text>
  </g>
</svg>
