<svg width="800" height="450" viewBox="0 0 800 450" fill="none" xmlns="http://www.w3.org/2000/svg" role="img" aria-labelledby="title desc">
  <title id="title">Visualization pattern preview</title>
  <desc id="desc">Preview of visualization patterns supported by the skill.</desc>
  <rect width="800" height="450" fill="#FFFFFF"/>
  <rect x="30" y="26" width="740" height="398" rx="14" fill="#F8FAFC" stroke="#D1D5DB"/>
  <text x="60" y="72" fill="#000000" font-family="Georgia, 'Times New Roman', serif" font-size="30" font-weight="700">Choose the right visual for the decision</text>
  <text x="60" y="104" fill="#374151" font-family="Arial, Helvetica, sans-serif" font-size="16">The skill maps business questions to consulting-style visual patterns.</text>

  <g transform="translate(60 140)">
    <rect width="205" height="92" rx="8" fill="#FFFFFF" stroke="#D1D5DB"/>
    <text x="18" y="31" fill="#1E3A8A" font-family="Arial, Helvetica, sans-serif" font-size="14" font-weight="700">Waterfall</text>
    <rect x="20" y="58" width="24" height="18" fill="#1E3A8A"/>
    <rect x="52" y="42" width="24" height="34" fill="#2563EB"/>
    <rect x="84" y="32" width="24" height="44" fill="#2563EB"/>
    <rect x="116" y="66" width="24" height="10" fill="#B91C1C"/>
    <line x1="18" y1="76" x2="160" y2="76" stroke="#374151"/>
  </g>
  <g transform="translate(298 140)">
    <rect width="205" height="92" rx="8" fill="#FFFFFF" stroke="#D1D5DB"/>
    <text x="18" y="31" fill="#1E3A8A" font-family="Arial, Helvetica, sans-serif" font-size="14" font-weight="700">2x2 market map</text>
    <line x1="44" y1="72" x2="160" y2="72" stroke="#6B7280"/>
    <line x1="44" y1="20" x2="44" y2="72" stroke="#6B7280"/>
    <circle cx="78" cy="50" r="6" fill="#1E3A8A"/>
    <circle cx="125" cy="34" r="6" fill="#2563EB"/>
    <circle cx="142" cy="61" r="6" fill="#6B7280"/>
  </g>
  <g transform="translate(536 140)">
    <rect width="205" height="92" rx="8" fill="#FFFFFF" stroke="#D1D5DB"/>
    <text x="18" y="31" fill="#1E3A8A" font-family="Arial, Helvetica, sans-serif" font-size="14" font-weight="700">Benchmark table</text>
    <rect x="18" y="45" width="150" height="28" fill="#F3F4F6"/>
    <line x1="18" y1="45" x2="168" y2="45" stroke="#D1D5DB"/>
    <line x1="18" y1="59" x2="168" y2="59" stroke="#D1D5DB"/>
    <line x1="18" y1="73" x2="168" y2="73" stroke="#D1D5DB"/>
    <line x1="68" y1="45" x2="68" y2="73" stroke="#D1D5DB"/>
    <line x1="118" y1="45" x2="118" y2="73" stroke="#D1D5DB"/>
  </g>

  <g transform="translate(60 260)">
    <rect width="205" height="92" rx="8" fill="#FFFFFF" stroke="#D1D5DB"/>
    <text x="18" y="31" fill="#1E3A8A" font-family="Arial, Helvetica, sans-serif" font-size="14" font-weight="700">Timeline</text>
    <line x1="28" y1="62" x2="170" y2="62" stroke="#1E3A8A" stroke-width="4"/>
    <circle cx="42" cy="62" r="8" fill="#1E3A8A"/>
    <circle cx="98" cy="62" r="8" fill="#1E3A8A"/>
    <circle cx="154" cy="62" r="8" fill="#1E3A8A"/>
  </g>
  <g transform="translate(298 260)">
    <rect width="205" height="92" rx="8" fill="#FFFFFF" stroke="#D1D5DB"/>
    <text x="18" y="31" fill="#1E3A8A" font-family="Arial, Helvetica, sans-serif" font-size="14" font-weight="700">Gap visual</text>
    <rect x="18" y="48" width="152" height="16" rx="8" fill="#1E3A8A"/>
    <rect x="18" y="70" width="92" height="16" rx="8" fill="#D1D5DB"/>
  </g>
  <g transform="translate(536 260)">
    <rect width="205" height="92" rx="8" fill="#1E3A5F"/>
    <text x="18" y="31" fill="#E5E7EB" font-family="Arial, Helvetica, sans-serif" font-size="14" font-weight="700">Executive summary</text>
    <rect x="18" y="48" width="45" height="26" rx="4" fill="#FFFFFF"/>
    <rect x="78" y="48" width="45" height="26" rx="4" fill="#FFFFFF"/>
    <rect x="138" y="48" width="45" height="26" rx="4" fill="#FFFFFF"/>
  </g>
</svg>
